<svg id="icon-close" aria-hidden="true" style="position:absolute;width:0;height:0" xmlns="http://www.w3.org/2000/svg" overflow="hidden"><defs><symbol id="icon-icon-close" viewBox="0 0 32 32"><path fill="var(--color1, #3db39e)" d="M16 0C7.164 0 0 7.164 0 16c0 8.837 7.164 16 16 16s16-7.163 16-16c0-8.836-7.164-16-16-16zm0 29C8.82 29 3 23.18 3 16S8.82 3 16 3s13 5.82 13 13-5.82 13-13 13zm2.833-13.01l2.829-2.829a1 1 0 000-1.413l-1.415-1.415a1 1 0 00-1.414 0l-2.829 2.829-2.827-2.827a1.001 1.001 0 00-1.416-.002l-1.415 1.415c-.39.39-.39 1.023.001 1.415l2.827 2.827-2.821 2.821a1 1 0 000 1.415l1.414 1.414a1 1 0 001.414 0l2.822-2.822 2.842 2.843a1.001 1.001 0 001.416.001l1.414-1.414a1 1 0 00-.001-1.415l-2.841-2.843z"/></symbol></defs></svg>